%TF.GenerationSoftware,KiCad,Pcbnew,7.0.7*%
%TF.CreationDate,2023-11-01T18:51:47-04:00*%
%TF.ProjectId,mk18-pcb,6d6b3138-2d70-4636-922e-6b696361645f,rev?*%
%TF.SameCoordinates,Original*%
%TF.FileFunction,Legend,Top*%
%TF.FilePolarity,Positive*%
%FSLAX46Y46*%
G04 Gerber Fmt 4.6, Leading zero omitted, Abs format (unit mm)*
G04 Created by KiCad (PCBNEW 7.0.7) date 2023-11-01 18:51:47*
%MOMM*%
%LPD*%
G01*
G04 APERTURE LIST*
G04 Aperture macros list*
%AMRoundRect*
0 Rectangle with rounded corners*
0 $1 Rounding radius*
0 $2 $3 $4 $5 $6 $7 $8 $9 X,Y pos of 4 corners*
0 Add a 4 corners polygon primitive as box body*
4,1,4,$2,$3,$4,$5,$6,$7,$8,$9,$2,$3,0*
0 Add four circle primitives for the rounded corners*
1,1,$1+$1,$2,$3*
1,1,$1+$1,$4,$5*
1,1,$1+$1,$6,$7*
1,1,$1+$1,$8,$9*
0 Add four rect primitives between the rounded corners*
20,1,$1+$1,$2,$3,$4,$5,0*
20,1,$1+$1,$4,$5,$6,$7,0*
20,1,$1+$1,$6,$7,$8,$9,0*
20,1,$1+$1,$8,$9,$2,$3,0*%
G04 Aperture macros list end*
%ADD10C,0.150000*%
%ADD11C,0.120000*%
%ADD12RoundRect,0.250000X-0.600000X-0.725000X0.600000X-0.725000X0.600000X0.725000X-0.600000X0.725000X0*%
%ADD13O,1.700000X1.950000*%
G04 APERTURE END LIST*
D10*
X131916666Y-63154819D02*
X131583333Y-62678628D01*
X131345238Y-63154819D02*
X131345238Y-62154819D01*
X131345238Y-62154819D02*
X131726190Y-62154819D01*
X131726190Y-62154819D02*
X131821428Y-62202438D01*
X131821428Y-62202438D02*
X131869047Y-62250057D01*
X131869047Y-62250057D02*
X131916666Y-62345295D01*
X131916666Y-62345295D02*
X131916666Y-62488152D01*
X131916666Y-62488152D02*
X131869047Y-62583390D01*
X131869047Y-62583390D02*
X131821428Y-62631009D01*
X131821428Y-62631009D02*
X131726190Y-62678628D01*
X131726190Y-62678628D02*
X131345238Y-62678628D01*
X132345238Y-62631009D02*
X132678571Y-62631009D01*
X132821428Y-63154819D02*
X132345238Y-63154819D01*
X132345238Y-63154819D02*
X132345238Y-62154819D01*
X132345238Y-62154819D02*
X132821428Y-62154819D01*
X133583333Y-62631009D02*
X133250000Y-62631009D01*
X133250000Y-63154819D02*
X133250000Y-62154819D01*
X133250000Y-62154819D02*
X133726190Y-62154819D01*
X134250000Y-62154819D02*
X134250000Y-62392914D01*
X134011905Y-62297676D02*
X134250000Y-62392914D01*
X134250000Y-62392914D02*
X134488095Y-62297676D01*
X134107143Y-62583390D02*
X134250000Y-62392914D01*
X134250000Y-62392914D02*
X134392857Y-62583390D01*
X135011905Y-62154819D02*
X135011905Y-62392914D01*
X134773810Y-62297676D02*
X135011905Y-62392914D01*
X135011905Y-62392914D02*
X135250000Y-62297676D01*
X134869048Y-62583390D02*
X135011905Y-62392914D01*
X135011905Y-62392914D02*
X135154762Y-62583390D01*
D11*
%TO.C,REF\u002A\u002A*%
X124890000Y-64290000D02*
X141610000Y-64290000D01*
X141610000Y-64290000D02*
X141610000Y-65500000D01*
X141610000Y-65500000D02*
X142110000Y-65500000D01*
X124890000Y-65500000D02*
X124890000Y-64290000D01*
X124390000Y-67810000D02*
X142110000Y-67810000D01*
X125390000Y-66310000D02*
X125390000Y-67810000D01*
X142110000Y-63790000D02*
X124390000Y-63790000D01*
X142110000Y-66310000D02*
X141110000Y-66310000D01*
X124390000Y-63790000D02*
X124390000Y-67810000D01*
X124390000Y-66310000D02*
X125390000Y-66310000D01*
X142110000Y-67810000D02*
X142110000Y-63790000D01*
X141110000Y-66310000D02*
X141110000Y-67810000D01*
X124090000Y-68110000D02*
X126590000Y-68110000D01*
X124090000Y-65610000D02*
X124090000Y-68110000D01*
X124390000Y-65500000D02*
X124890000Y-65500000D01*
%TD*%
%LPC*%
D12*
%TO.C,REF\u002A\u002A*%
X127000000Y-65500000D03*
D13*
X129500000Y-65500000D03*
X132000000Y-65500000D03*
X134500000Y-65500000D03*
X137000000Y-65500000D03*
X139500000Y-65500000D03*
%TD*%
%LPD*%
M02*
